<svg xmlns="http://www.w3.org/2000/svg" version="1.1" xmlns:xlink="http://www.w3.org/1999/xlink" width="200" height="200"><svg xmlns="http://www.w3.org/2000/svg" version="1.1" xmlns:xlink="http://www.w3.org/1999/xlink" viewBox="0 0 200 200"><rect width="200" height="200" fill="url('#gradient')"></rect><defs><linearGradient id="SvgjsLinearGradient1008" gradientTransform="rotate(45 0.5 0.5)"><stop offset="0%" stop-color="#4dd0e1"></stop><stop offset="100%" stop-color="#4dd0e1"></stop></linearGradient></defs><g><g fill="#000000" transform="matrix(4.7056420730150625,0,0,4.7056420730150625,4.945830660174323,133.45649063389368)" stroke="#ffffff" stroke-width="0.3"><path d="M6.69-4.82L4.50-4.82L4.50 0L1.07 0L1.07-14.22L6.75-14.22Q8.38-14.22 9.63-13.62Q10.89-13.02 11.58-11.91Q12.27-10.80 12.27-9.39L12.27-9.39Q12.27-7.31 10.78-6.07Q9.29-4.82 6.69-4.82L6.69-4.82ZM4.50-11.57L4.50-7.47L6.75-7.47Q7.74-7.47 8.27-7.97Q8.79-8.47 8.79-9.38L8.79-9.38Q8.79-10.37 8.25-10.97Q7.71-11.56 6.79-11.57L6.79-11.57L4.50-11.57ZM25.97-14.22L25.97 0L22.56 0L17.52-8.85L17.52 0L14.09 0L14.09-14.22L17.52-14.22L22.55-5.37L22.55-14.22L25.97-14.22ZM33.75-4.82L31.56-4.82L31.56 0L28.13 0L28.13-14.22L33.81-14.22Q35.44-14.22 36.69-13.62Q37.95-13.02 38.64-11.91Q39.33-10.80 39.33-9.39L39.33-9.39Q39.33-7.31 37.84-6.07Q36.35-4.82 33.75-4.82L33.75-4.82ZM31.56-11.57L31.56-7.47L33.81-7.47Q34.80-7.47 35.33-7.97Q35.85-8.47 35.85-9.38L35.85-9.38Q35.85-10.37 35.31-10.97Q34.78-11.56 33.85-11.57L33.85-11.57L31.56-11.57Z"></path></g></g></svg><style>@media (prefers-color-scheme: light) { :root { filter: none; } }
@media (prefers-color-scheme: dark) { :root { filter: none; } }
</style></svg>